<svg xmlns="http://www.w3.org/2000/svg" width="105.1" height="99.6" viewBox="0 0 105.1 99.6">
<path d="M 35.555 5.218 C 38.994 5.118, 43.765 5.163, 47.676 5.163 C 48.802 5.163, 50.937 5.000, 51.642 5.275 C 52.595 5.645, 53.343 7.784, 53.821 8.623 C 54.476 9.775, 55.062 11.033, 56.111 11.859 C 62.909 12.030, 71.604 11.971, 79.125 11.971 C 80.203 11.971, 81.812 11.794, 82.477 12.083 C 83.473 12.516, 83.935 14.667, 84.655 15.431 C 86.199 17.952, 87.703 20.559, 89.291 23.243 C 89.695 23.926, 90.659 25.166, 90.687 25.978 C 90.711 26.670, 90.118 27.254, 89.793 27.819 C 89.417 28.470, 89.129 29.087, 88.843 29.605 C 88.136 30.882, 87.398 31.809, 87.000 33.232 C 87.208 34.400, 87.965 35.334, 88.509 36.301 C 90.117 39.166, 91.871 41.930, 93.480 44.894 C 95.186 47.675, 96.698 50.538, 98.508 53.432 C 98.965 54.164, 100.134 55.603, 99.961 56.500 C 99.726 57.714, 98.610 59.179, 97.950 60.295 C 96.510 62.726, 95.016 65.151, 93.648 67.603 C 92.957 68.844, 92.499 70.245, 91.358 71.062 C 90.388 71.186, 88.815 71.157, 87.448 71.118 C 86.101 71.082, 83.982 70.877, 83.202 71.286 C 82.452 71.681, 81.918 73.204, 81.414 74.132 C 80.860 75.156, 80.172 76.118, 79.683 76.978 C 78.568 78.938, 77.403 80.790, 76.274 82.725 C 74.652 85.510, 72.946 88.529, 71.247 91.486 C 70.778 92.303, 70.037 93.926, 69.404 94.220 C 68.591 94.596, 66.650 94.248, 65.438 94.276 C 62.583 94.340, 60.097 94.257, 57.338 94.276 C 55.997 94.284, 54.535 94.463, 53.484 94.276 C 52.948 94.181, 52.551 93.246, 52.200 92.657 C 51.451 91.401, 50.935 90.453, 50.188 89.199 C 49.810 88.564, 49.382 87.803, 48.792 87.636 C 47.958 87.399, 46.710 87.605, 45.497 87.581 C 40.408 87.480, 34.712 87.525, 29.242 87.525 C 28.207 87.525, 27.283 87.517, 26.170 87.468 C 25.065 87.420, 23.698 87.660, 22.930 87.413 C 22.411 87.246, 22.003 86.479, 21.646 85.850 C 19.622 82.287, 17.582 78.768, 15.446 75.304 C 15.090 74.727, 14.548 73.821, 14.552 73.296 C 14.555 72.750, 15.155 71.904, 15.446 71.398 C 16.174 70.130, 16.713 69.165, 17.457 67.883 C 17.777 67.330, 18.335 66.545, 18.350 66.042 C 18.364 65.600, 17.932 64.949, 17.624 64.424 C 15.632 61.029, 13.655 57.461, 11.760 54.157 C 10.629 52.186, 9.393 50.308, 8.297 48.353 C 7.745 47.370, 7.200 46.358, 6.621 45.396 C 6.040 44.429, 5.327 43.526, 5.000 42.437 C 5.066 41.705, 5.547 41.130, 5.893 40.540 C 6.915 38.796, 7.900 37.010, 8.965 35.239 C 10.055 33.470, 10.822 31.731, 11.926 29.827 C 12.248 29.268, 12.693 28.518, 13.210 28.321 C 14.226 27.929, 15.872 28.271, 17.289 28.208 C 18.839 28.141, 20.707 28.539, 21.646 28.097 C 22.380 27.750, 23.088 26.177, 23.545 25.418 C 23.858 24.898, 24.018 24.346, 24.270 23.857 C 25.535 21.398, 27.106 18.921, 28.404 16.547 C 29.992 13.643, 31.764 10.896, 33.487 7.898 C 33.978 7.043, 34.596 5.366, 35.555 5.218 M 51.306 9.571 C 50.984 9.011, 50.536 7.981, 49.911 7.786 C 49.286 7.590, 48.341 7.730, 47.676 7.730 C 46.899 7.730, 46.110 7.730, 45.386 7.730 C 43.810 7.730, 42.110 7.558, 40.750 7.730 C 39.543 7.882, 40.005 8.635, 40.359 9.291 C 40.802 10.115, 41.409 11.802, 42.202 12.081 C 42.796 12.291, 43.902 12.138, 44.771 12.138 C 46.647 12.137, 48.298 12.138, 50.021 12.138 C 50.881 12.138, 51.844 12.349, 52.311 11.747 C 52.165 10.850, 51.699 10.251, 51.306 9.571 M 35.331 21.232 C 35.351 20.632, 35.995 19.856, 36.336 19.280 C 37.158 17.886, 37.734 16.776, 38.515 15.429 C 38.883 14.796, 39.475 14.053, 39.465 13.364 C 39.450 12.466, 38.707 11.562, 38.180 10.686 C 37.924 10.260, 37.645 9.740, 37.453 9.403 C 37.216 8.985, 37.030 8.453, 36.503 8.343 C 36.015 8.240, 34.972 10.381, 34.661 10.910 C 33.182 13.421, 31.524 16.321, 30.248 18.666 C 29.272 20.252, 28.304 22.028, 27.287 23.799 C 26.875 24.516, 26.261 25.467, 25.779 26.311 C 25.340 27.081, 24.466 28.320, 24.495 29.101 C 24.528 29.988, 25.347 30.892, 25.835 31.722 C 26.100 32.175, 26.925 34.057, 27.566 34.010 C 28.004 33.979, 28.406 33.040, 28.683 32.560 C 29.436 31.261, 29.819 30.539, 30.583 29.212 C 30.861 28.729, 31.271 27.761, 31.756 27.761 C 32.316 27.760, 32.824 29.054, 33.152 29.602 C 36.079 34.490, 38.726 39.313, 41.586 44.109 C 42.389 45.484, 43.267 46.848, 43.988 48.238 C 44.223 48.692, 44.674 49.204, 44.547 49.800 C 44.254 50.221, 43.671 50.079, 43.262 50.079 C 36.574 50.078, 29.429 50.023, 22.650 50.023 C 21.515 50.023, 20.224 50.214, 19.466 49.967 C 18.533 49.664, 17.918 47.726, 17.343 46.730 C 17.061 46.241, 16.726 45.698, 16.393 45.113 C 16.083 44.566, 15.643 43.832, 15.221 43.662 C 14.461 43.358, 13.190 43.582, 12.149 43.605 C 11.042 43.632, 9.866 43.504, 9.300 44.052 C 9.299 45.043, 10.013 45.857, 10.473 46.674 C 11.936 49.264, 13.301 51.668, 14.830 54.207 C 16.281 56.615, 17.672 59.221, 19.132 61.740 C 19.560 62.479, 20.181 63.753, 20.863 63.972 C 21.629 64.219, 23.021 64.068, 23.936 64.028 C 24.923 63.985, 26.100 64.204, 26.561 63.583 C 26.338 62.262, 25.575 61.315, 24.996 60.290 C 24.420 59.269, 23.619 58.291, 23.544 56.942 C 24.331 56.308, 25.456 56.659, 26.448 56.663 C 27.463 56.667, 28.547 56.639, 29.576 56.663 C 35.594 56.806, 41.669 56.476, 47.451 56.720 C 47.909 56.739, 48.517 56.566, 48.847 56.998 C 48.576 58.056, 47.946 58.982, 47.451 59.899 C 46.948 60.832, 46.400 61.719, 45.887 62.634 C 43.330 67.197, 40.795 71.799, 38.123 76.417 C 37.652 77.229, 37.169 78.710, 36.392 79.038 C 35.530 79.402, 33.885 79.261, 32.538 79.261 C 31.202 79.261, 29.593 79.035, 28.628 79.317 C 27.856 79.542, 27.367 80.863, 26.952 81.660 C 26.742 82.063, 25.556 83.725, 25.779 84.227 C 25.976 84.669, 27.315 84.561, 28.293 84.561 C 34.296 84.563, 39.516 84.617, 45.442 84.618 C 46.434 84.618, 47.648 84.737, 48.235 84.506 C 48.964 84.217, 49.509 82.875, 49.911 82.164 C 50.460 81.185, 50.984 80.440, 51.195 79.372 C 50.849 78.879, 50.158 79.065, 49.519 79.094 C 48.883 79.122, 48.139 79.094, 47.452 79.094 C 46.122 79.094, 44.485 79.501, 43.822 78.703 C 43.763 78.136, 44.170 77.643, 44.436 77.197 C 44.725 76.712, 44.952 76.219, 45.218 75.746 C 48.440 70.012, 51.785 64.313, 54.993 58.671 C 55.523 57.741, 55.923 56.499, 56.893 56.049 C 57.779 56.668, 58.150 57.739, 58.681 58.616 C 59.236 59.535, 59.772 60.479, 60.301 61.406 C 62.924 66.018, 65.715 70.759, 68.344 75.301 C 68.890 76.245, 69.501 77.227, 69.741 78.314 C 69.709 78.987, 69.221 79.627, 68.846 80.267 C 68.139 81.474, 67.495 82.544, 66.835 83.726 C 66.483 84.358, 66.030 85.062, 66.054 85.735 C 66.080 86.525, 66.695 87.429, 67.115 88.134 C 67.568 88.896, 67.871 89.795, 68.678 90.087 C 69.524 89.779, 69.579 88.881, 69.908 88.190 C 70.644 86.641, 71.704 85.202, 72.532 83.670 C 74.621 79.811, 77.055 76.185, 79.180 72.399 C 79.621 71.613, 80.220 70.873, 80.353 69.943 C 80.142 69.036, 79.630 68.239, 79.180 67.489 C 78.750 66.772, 78.338 65.875, 77.560 65.479 C 76.642 66.164, 76.201 67.272, 75.548 68.382 C 75.256 68.877, 75.041 69.288, 74.654 69.943 C 74.403 70.369, 74.006 71.262, 73.481 71.226 C 72.841 71.184, 72.088 69.244, 71.750 68.659 C 71.188 67.689, 70.638 66.804, 70.186 65.926 C 67.676 61.063, 65.030 56.679, 62.421 52.143 C 61.890 51.221, 61.096 50.365, 60.968 49.242 C 61.699 48.598, 62.846 48.851, 63.817 48.851 C 70.471 48.852, 76.532 48.878, 82.752 48.907 C 83.755 48.911, 85.053 48.692, 85.769 48.963 C 86.262 49.151, 86.640 49.831, 86.998 50.414 C 87.741 51.623, 88.234 52.634, 88.953 53.818 C 89.264 54.331, 89.734 55.167, 90.183 55.325 C 90.983 55.608, 92.214 55.400, 93.199 55.381 C 94.170 55.361, 95.300 55.682, 95.879 55.047 C 95.793 54.086, 95.107 53.335, 94.650 52.535 C 92.306 48.413, 89.851 44.315, 87.445 40.315 C 86.469 38.693, 85.743 36.889, 84.372 35.572 C 83.558 35.477, 82.522 35.515, 81.523 35.515 C 80.560 35.516, 79.439 35.352, 78.899 35.851 C 78.766 36.436, 79.202 36.926, 79.457 37.358 C 79.729 37.821, 79.981 38.295, 80.239 38.752 C 80.757 39.674, 81.515 40.543, 81.635 41.655 C 80.872 42.226, 79.734 41.990, 78.732 41.990 C 71.942 41.990, 66.003 41.935, 59.571 41.933 C 58.555 41.933, 57.394 42.183, 56.611 41.599 C 56.918 40.600, 57.498 39.717, 58.007 38.808 C 58.501 37.927, 59.055 37.065, 59.571 36.186 C 62.162 31.771, 64.605 27.256, 67.223 22.795 C 67.752 21.896, 68.210 20.607, 69.010 20.340 C 69.988 20.015, 71.463 20.284, 72.697 20.284 C 74.003 20.284, 75.283 20.328, 76.496 20.229 C 77.255 19.689, 77.658 18.774, 78.116 17.940 C 78.556 17.137, 79.355 16.376, 79.345 15.374 C 78.616 14.884, 77.623 15.094, 76.719 15.094 C 73.772 15.094, 70.924 15.030, 68.117 15.037 C 65.037 15.047, 61.822 15.177, 58.733 15.037 C 57.916 15.002, 57.140 14.995, 56.666 15.204 C 56.068 15.469, 55.510 16.731, 55.157 17.325 C 54.689 18.118, 54.099 18.899, 53.984 19.836 C 54.518 20.338, 56.088 20.227, 57.447 20.227 C 58.528 20.227, 60.625 20.005, 60.855 20.673 C 60.995 21.086, 60.525 21.767, 60.296 22.180 C 60.046 22.629, 59.676 23.207, 59.458 23.575 C 57.771 26.424, 56.219 29.258, 54.653 32.000 C 53.106 34.714, 51.486 37.593, 49.849 40.427 C 49.545 40.953, 48.638 42.956, 47.951 42.938 C 47.293 42.919, 46.812 41.497, 46.386 40.762 C 43.099 35.077, 39.988 29.645, 36.722 24.133 C 36.548 23.086, 35.288 22.454, 35.331 21.232 M 50.636 15.038 C 49.800 15.038, 48.895 15.038, 48.012 15.038 C 46.246 15.040, 44.302 14.859, 42.816 15.038 C 41.586 15.188, 41.035 16.482, 40.526 17.383 C 40.050 18.227, 39.451 18.999, 39.465 19.894 C 40.082 20.361, 41.029 20.174, 41.866 20.173 C 43.701 20.173, 45.520 20.174, 47.341 20.173 C 48.220 20.173, 49.359 20.332, 50.022 20.117 C 50.732 19.889, 51.301 18.608, 51.642 17.998 C 52.094 17.188, 52.673 16.464, 52.815 15.430 C 52.324 14.844, 51.395 15.038, 50.636 15.038 M 80.743 19.056 C 80.305 19.780, 79.813 20.422, 79.850 21.065 C 79.890 21.778, 80.582 22.630, 81.023 23.408 C 81.951 25.053, 82.607 26.198, 83.593 27.928 C 83.916 28.496, 84.608 29.920, 85.213 29.881 C 85.777 29.846, 86.155 28.680, 86.441 28.208 C 86.841 27.547, 87.424 27.027, 87.447 26.311 C 87.474 25.474, 86.724 24.577, 86.330 23.911 C 85.383 22.311, 84.601 20.922, 83.760 19.391 C 83.345 18.637, 82.878 17.798, 82.196 17.382 C 82.192 17.348, 82.188 17.316, 82.140 17.326 C 81.437 17.549, 81.213 18.279, 80.743 19.056 M 73.984 28.040 C 74.342 28.651, 74.815 29.483, 75.268 30.217 C 75.668 30.862, 76.126 31.918, 76.777 32.169 C 77.403 32.410, 78.760 32.281, 79.681 32.281 C 80.612 32.281, 82.113 32.468, 82.306 31.891 C 82.449 31.464, 81.509 30.075, 81.245 29.603 C 80.284 27.878, 79.600 26.875, 78.675 25.195 C 78.264 24.446, 77.748 23.423, 77.167 23.186 C 76.653 22.975, 75.712 23.099, 75.044 23.129 C 73.785 23.189, 72.281 22.822, 71.637 23.520 C 72.177 25.141, 73.100 26.532, 73.984 28.040 M 40.135 23.576 C 39.939 24.021, 40.563 25.023, 40.805 25.473 C 41.157 26.128, 41.625 26.893, 41.811 27.204 C 43.504 30.047, 45.012 32.932, 46.725 35.853 C 47.013 36.342, 47.375 37.374, 47.955 37.360 C 48.520 37.345, 49.211 35.770, 49.519 35.240 C 50.532 33.493, 51.227 32.174, 52.201 30.553 C 52.540 29.988, 53.420 28.967, 53.374 27.986 C 53.352 27.537, 53.037 27.039, 52.815 26.646 C 52.594 26.255, 52.336 25.854, 52.088 25.418 C 51.696 24.727, 51.192 23.423, 50.468 23.187 C 49.826 22.976, 48.508 23.187, 47.340 23.187 C 46.163 23.187, 44.845 23.171, 44.099 23.187 C 43.138 23.204, 40.407 22.959, 40.135 23.576 M 54.545 23.743 C 54.405 24.854, 56.203 24.981, 55.998 23.631 C 55.685 23.024, 54.624 23.127, 54.545 23.743 M 63.762 39.256 C 65.544 39.256, 67.295 39.256, 69.070 39.256 C 69.957 39.256, 71.059 39.400, 71.583 39.200 C 72.298 38.928, 72.771 37.788, 73.203 37.080 C 73.628 36.379, 74.427 35.511, 74.432 34.569 C 74.435 34.012, 73.880 33.117, 73.538 32.504 C 72.441 30.539, 71.063 28.492, 70.242 26.757 C 69.977 26.196, 69.770 25.189, 69.014 25.641 C 67.562 27.651, 66.378 29.928, 65.104 32.113 C 64.460 33.218, 63.756 34.235, 63.148 35.350 C 62.549 36.448, 61.713 37.506, 61.472 38.921 C 62.033 39.426, 62.947 39.256, 63.762 39.256 M 17.568 31.110 C 16.656 31.110, 15.728 31.109, 15.054 31.110 C 14.280 31.110, 13.651 32.579, 13.266 33.229 C 12.296 34.873, 11.551 36.398, 10.696 37.917 C 10.248 38.716, 9.635 39.443, 9.523 40.372 C 9.941 40.936, 11.021 40.796, 11.926 40.763 C 12.848 40.728, 13.850 40.730, 14.496 40.540 C 15.611 39.250, 16.483 37.663, 17.345 36.132 C 17.777 35.363, 18.197 34.558, 18.629 33.789 C 19.054 33.031, 19.777 32.324, 19.746 31.389 C 19.317 30.948, 18.370 31.110, 17.568 31.110 M 25.835 37.080 C 25.815 36.542, 25.265 35.745, 25.053 35.350 C 24.742 34.770, 24.310 34.190, 24.103 33.732 C 23.813 33.083, 23.482 31.842, 22.652 32.337 C 21.463 34.266, 20.001 36.719, 18.797 38.921 C 18.420 39.609, 17.677 40.615, 17.680 41.320 C 17.685 42.159, 18.530 43.208, 18.965 43.941 C 19.213 44.360, 19.458 44.776, 19.690 45.170 C 19.912 45.546, 20.159 46.141, 20.696 46.173 C 21.222 46.001, 21.511 45.385, 21.757 44.947 C 22.585 43.471, 23.490 42.057, 24.103 40.427 C 24.445 39.488, 25.882 38.306, 25.835 37.080 M 30.862 34.960 C 31.180 35.360, 32.512 35.373, 32.761 34.903 C 32.760 34.142, 32.425 33.714, 32.035 33.342 C 31.153 33.365, 30.810 34.183, 30.862 34.960 M 75.660 38.865 C 75.767 39.190, 76.498 39.250, 76.721 38.978 C 76.734 38.933, 76.722 38.866, 76.777 38.865 C 76.829 38.403, 76.608 38.217, 76.386 38.027 C 75.829 37.993, 75.642 38.326, 75.660 38.865 M 25.779 47.291 C 29.241 47.437, 32.494 47.347, 36.057 47.347 C 37.075 47.347, 39.494 47.704, 39.800 47.068 C 40.059 46.532, 38.963 45.161, 38.739 44.780 C 37.750 43.096, 37.067 41.903, 36.169 40.316 C 35.851 39.754, 35.277 38.477, 34.716 38.251 C 33.931 37.936, 30.310 38.024, 29.355 38.140 C 28.418 38.253, 28.033 39.225, 27.512 40.094 C 26.530 41.726, 25.763 43.111, 24.942 44.613 C 24.535 45.357, 23.836 46.042, 23.936 47.068 C 24.419 47.450, 25.142 47.264, 25.779 47.291 M 78.342 51.699 C 76.216 51.700, 74.047 51.639, 72.030 51.643 C 70.307 51.647, 68.108 51.449, 66.501 51.643 C 66.194 51.680, 66.010 51.803, 65.830 52.034 C 65.888 52.766, 66.321 53.396, 66.667 53.988 C 67.026 54.599, 67.330 55.215, 67.672 55.829 C 68.345 57.034, 69.148 58.198, 69.740 59.399 C 70.023 59.976, 70.218 60.718, 70.745 60.962 C 71.721 61.413, 73.606 61.015, 74.655 61.018 C 75.198 61.019, 75.931 61.128, 76.331 60.962 C 76.944 60.707, 77.408 59.490, 77.784 58.841 C 78.694 57.269, 79.545 55.840, 80.408 54.322 C 80.834 53.573, 81.504 52.823, 81.469 51.923 C 80.552 51.526, 79.428 51.699, 78.342 51.699 M 83.760 64.533 C 84.657 62.870, 85.495 61.520, 86.440 59.789 C 86.815 59.104, 87.700 58.131, 87.670 57.279 C 87.653 56.830, 87.285 56.449, 87.056 56.050 C 86.845 55.685, 86.610 55.286, 86.384 54.877 C 86.048 54.265, 85.511 52.709, 84.764 52.758 C 84.179 52.796, 83.535 54.338, 83.201 54.877 C 82.188 56.520, 81.405 58.029, 80.520 59.565 C 80.076 60.336, 79.581 61.131, 79.403 62.133 C 79.584 63.068, 80.154 63.857, 80.577 64.644 C 80.981 65.400, 81.420 66.353, 82.252 66.709 C 82.945 66.221, 83.331 65.327, 83.760 64.533 M 92.529 58.563 C 92.175 58.565, 91.830 58.500, 91.524 58.506 C 90.016 58.543, 89.778 59.565, 89.123 60.682 C 88.113 62.402, 87.512 63.491, 86.498 65.203 C 86.209 65.689, 85.151 67.019, 85.381 67.601 C 85.586 68.123, 86.770 67.993, 87.558 67.993 C 88.449 67.993, 89.549 68.140, 90.128 67.938 C 90.694 67.738, 91.290 66.460, 91.638 65.873 C 92.570 64.292, 93.303 62.770, 94.208 61.297 C 94.675 60.535, 95.159 59.771, 95.381 58.897 C 94.911 58.248, 93.590 58.555, 92.529 58.563 M 28.181 59.735 C 28.308 61.263, 29.902 61.275, 29.856 59.622 C 29.572 59.080, 28.362 59.135, 28.181 59.735 M 31.029 64.701 C 31.069 65.435, 31.738 66.299, 32.146 66.989 C 33.158 68.695, 33.708 69.692, 34.715 71.341 C 35.044 71.879, 35.609 73.264, 36.279 73.238 C 36.740 73.220, 37.245 72.241, 37.508 71.787 C 39.589 68.202, 41.475 64.945, 43.428 61.463 C 43.672 61.029, 44.403 60.111, 44.210 59.622 C 43.976 59.026, 40.298 59.232, 39.517 59.232 C 37.815 59.232, 35.967 59.055, 34.490 59.232 C 33.266 59.379, 33.120 60.990, 32.423 61.744 C 32.066 62.776, 30.959 63.378, 31.029 64.701 M 62.590 76.139 C 63.401 76.139, 64.669 76.252, 64.880 75.804 C 65.064 75.414, 64.415 74.369, 64.154 73.907 C 62.165 70.384, 60.226 66.892, 58.232 63.360 C 57.806 62.605, 57.521 61.600, 56.668 61.965 C 55.212 63.986, 54.074 66.238, 52.814 68.383 C 52.393 69.098, 51.846 69.853, 51.697 70.725 C 51.979 71.750, 52.529 72.694, 53.038 73.572 C 53.545 74.447, 53.929 75.505, 54.825 76.027 C 57.282 76.102, 59.984 76.139, 62.590 76.139 M 74.152 64.365 C 73.856 64.060, 72.975 64.046, 72.811 64.477 C 72.715 66.164, 74.623 65.713, 74.152 64.365 M 31.253 71.173 C 30.854 70.428, 30.422 69.692, 29.912 68.830 C 29.482 68.100, 29.022 66.945, 28.292 66.710 C 27.409 66.425, 26.001 66.654, 24.829 66.710 C 23.975 66.749, 23.071 66.524, 22.595 67.045 C 22.504 67.623, 22.918 68.117, 23.209 68.607 C 23.510 69.112, 23.676 69.655, 23.935 70.225 C 24.371 71.186, 25.140 72.360, 25.722 73.349 C 26.150 74.076, 27.000 76.004, 27.733 76.307 C 28.113 76.464, 28.739 76.362, 29.242 76.363 C 29.889 76.364, 30.825 76.420, 31.700 76.420 C 32.537 76.420, 33.475 76.569, 33.823 76.028 C 33.360 74.272, 32.201 72.943, 31.253 71.173 M 18.740 71.229 C 18.313 71.966, 17.821 72.747, 17.790 73.293 C 17.902 74.230, 18.520 74.990, 18.963 75.748 C 19.889 77.327, 20.764 78.820, 21.645 80.323 C 22.067 81.044, 22.306 82.087, 23.209 82.388 C 23.714 82.207, 23.707 81.666, 23.935 81.216 C 24.392 80.313, 25.341 79.411, 25.331 78.481 C 25.320 77.473, 24.287 76.405, 23.878 75.525 C 23.289 74.257, 22.710 73.177, 22.035 72.009 C 21.485 71.058, 21.032 69.964, 20.248 69.499 C 19.592 69.402, 19.166 70.496, 18.740 71.229 M 48.848 75.637 C 48.965 76.239, 50.591 76.386, 50.692 75.581 C 50.760 75.033, 50.052 74.302, 49.631 74.409 C 49.281 74.499, 48.743 75.099, 48.848 75.637 M 63.315 79.097 C 60.766 79.097, 57.444 79.053, 55.215 79.153 C 54.328 79.593, 53.851 80.798, 53.317 81.720 C 52.827 82.568, 52.155 83.432, 52.200 84.342 C 52.638 84.784, 53.379 84.612, 53.987 84.622 C 55.825 84.649, 57.367 84.603, 59.238 84.622 C 60.211 84.630, 61.877 84.908, 62.701 84.565 C 63.401 84.274, 64.084 82.743, 64.432 82.167 C 64.711 81.705, 64.930 81.247, 65.158 80.827 C 65.388 80.405, 65.844 79.960, 65.661 79.376 C 65.059 78.911, 64.133 79.097, 63.315 79.097 M 53.149 88.024 C 52.967 88.623, 53.721 89.440, 54.044 89.978 C 54.398 90.570, 54.758 91.457, 55.328 91.652 C 55.977 91.872, 57.167 91.707, 57.897 91.707 C 58.735 91.707, 59.644 91.764, 60.522 91.764 C 61.739 91.764, 65.146 91.977, 65.382 91.262 C 65.585 90.643, 64.812 89.795, 64.545 89.308 C 64.188 88.661, 63.876 87.858, 63.315 87.634 C 62.580 87.340, 60.922 87.523, 59.741 87.523 C 58.287 87.523, 56.737 87.541, 55.942 87.579 C 55.057 87.620, 53.371 87.298, 53.149 88.024" fill="#000000" stroke="none" />
</svg>