<svg xmlns="http://www.w3.org/2000/svg" width="108.8" height="99.3" viewBox="0 0 108.8 99.3">
<path d="M 39.640 5.049 C 45.718 5.038, 52.698 5.165, 58.812 5.165 C 59.719 5.165, 60.771 5.000, 61.559 5.165 C 62.140 5.287, 62.653 6.075, 63.079 6.566 C 63.582 7.146, 63.965 7.695, 64.365 8.142 C 70.560 15.326, 76.706 22.557, 82.894 29.746 C 86.304 33.989, 89.965 37.980, 93.415 42.183 C 96.857 46.376, 100.621 50.309, 103.819 54.738 C 103.191 55.900, 102.053 56.554, 101.131 57.423 C 90.532 66.493, 79.899 75.530, 69.333 84.633 C 67.382 86.266, 65.440 87.906, 63.488 89.538 C 62.060 90.745, 60.671 91.927, 59.104 93.217 C 58.716 93.536, 58.052 94.334, 57.585 94.326 C 56.904 94.312, 55.723 92.258, 55.363 91.816 C 53.252 89.222, 50.929 86.608, 48.817 84.167 C 40.693 74.570, 32.596 64.949, 24.384 55.381 C 23.852 54.760, 23.376 54.019, 22.631 53.629 C 22.344 54.268, 22.425 55.028, 22.397 55.731 C 22.303 58.083, 22.329 60.578, 22.397 63.031 C 22.651 72.150, 22.304 82.280, 22.280 91.817 C 21.000 92.104, 19.556 91.991, 18.130 91.991 C 13.722 91.991, 9.303 92.140, 5.270 91.875 C 5.057 88.282, 5.151 84.683, 5.153 81.072 C 5.157 73.849, 5.095 66.698, 5.095 59.760 C 5.095 42.127, 5.000 23.302, 5.212 5.223 C 10.585 5.030, 16.789 5.029, 22.221 5.223 C 22.535 8.871, 22.396 12.778, 22.396 16.668 C 22.396 28.037, 22.257 40.089, 22.571 51.410 C 23.001 51.463, 23.332 51.063, 23.623 50.826 C 25.753 49.095, 27.918 47.078, 30.112 45.337 C 32.555 43.223, 34.962 41.074, 37.476 39.031 C 41.115 35.853, 44.784 32.684, 48.524 29.571 C 49.766 28.537, 50.927 27.377, 52.323 26.534 C 54.388 28.536, 55.932 30.988, 57.817 33.133 C 59.702 35.278, 61.595 37.396, 63.312 39.672 C 62.911 40.575, 61.915 40.885, 61.324 41.599 C 60.624 42.202, 59.867 42.753, 59.220 43.408 C 56.038 46.109, 52.983 48.893, 49.751 51.583 C 48.697 52.459, 47.598 53.338, 46.710 54.385 C 47.592 55.859, 48.829 56.979, 49.866 58.296 C 51.911 60.925, 54.300 63.210, 56.180 66.004 C 56.981 66.885, 57.768 67.781, 58.635 68.806 C 58.908 69.129, 59.156 69.661, 59.512 69.682 C 59.922 69.706, 60.502 68.995, 60.856 68.689 C 63.655 66.273, 66.926 63.675, 69.566 61.390 C 71.159 59.927, 72.834 58.542, 74.477 57.128 C 76.113 55.718, 77.860 54.388, 79.328 52.808 C 78.725 51.635, 77.709 50.745, 76.873 49.771 C 74.370 46.855, 71.890 43.833, 69.333 40.896 C 66.002 36.924, 62.598 33.026, 59.279 29.043 C 55.897 25.123, 52.777 20.940, 49.284 17.132 C 46.819 14.125, 44.253 11.220, 41.802 8.198 C 41.407 7.809, 41.016 7.303, 40.517 6.738 C 40.159 6.334, 39.360 5.588, 39.464 5.161 C 39.508 5.110, 39.570 5.076, 39.640 5.049" fill="#000000" stroke="none" />
</svg>