<svg xmlns="http://www.w3.org/2000/svg" width="100.2" height="99.4" viewBox="0 0 100.2 99.4">
<path d="M 44.756 7.878 C 47.503 5.104, 52.433 5.000, 55.281 7.681 C 61.340 13.637, 67.399 19.605, 73.406 25.621 C 71.865 27.232, 70.275 28.807, 68.649 30.334 C 62.606 24.463, 56.668 18.479, 50.678 12.551 C 50.213 13.000, 49.752 13.453, 49.307 13.922 C 51.669 16.146, 53.857 18.539, 56.191 20.795 C 59.852 24.459, 63.585 28.062, 67.209 31.761 C 65.713 33.372, 64.070 34.855, 62.549 36.450 C 56.709 30.603, 50.823 24.803, 44.910 19.032 C 43.446 17.669, 42.516 15.741, 42.422 13.749 C 42.309 11.585, 43.163 9.373, 44.756 7.878" fill="#000000" stroke="none" />
<path d="M 33.221 19.509 C 34.758 17.942, 36.347 16.419, 37.876 14.848 C 43.883 20.739, 49.792 26.727, 55.778 32.635 C 57.959 34.687, 58.529 38.050, 57.481 40.787 C 56.846 42.258, 55.823 43.569, 54.448 44.430 C 54.019 44.647, 53.594 44.859, 53.166 45.076 C 52.632 45.240, 52.098 45.400, 51.548 45.516 C 50.294 45.541, 48.991 45.673, 47.802 45.184 C 47.511 45.080, 47.224 44.967, 46.937 44.855 C 45.278 44.017, 44.077 42.579, 42.754 41.324 C 37.516 36.086, 32.234 30.891, 26.988 25.657 C 28.468 24.226, 29.920 22.767, 31.368 21.308 C 31.510 21.176, 31.772 20.875, 31.954 21.116 C 37.904 26.996, 43.814 32.911, 49.752 38.799 C 50.201 38.318, 50.674 37.861, 51.163 37.420 C 45.213 31.489, 39.166 25.657, 33.237 19.709 C 33.237 19.661, 33.229 19.557, 33.221 19.509" fill="#000000" stroke="none" />
<path d="M 9.033 43.468 C 14.509 38.026, 20.030 32.615, 25.475 27.136 C 25.564 27.152, 25.746 27.188, 25.839 27.204 C 27.307 28.767, 28.893 30.214, 30.385 31.761 C 24.391 37.697, 18.404 43.641, 12.410 49.573 C 12.839 50.001, 13.247 50.454, 13.713 50.847 C 13.899 50.779, 14.060 50.671, 14.194 50.522 C 20.047 44.711, 25.903 38.895, 31.777 33.100 C 33.310 34.715, 34.976 36.194, 36.513 37.797 C 30.656 43.737, 24.666 49.548, 18.764 55.444 C 18.380 55.857, 17.915 56.182, 17.458 56.510 C 16.912 56.847, 16.329 57.124, 15.731 57.360 C 12.649 58.478, 8.940 57.332, 7.026 54.695 C 5.364 52.522, 5.000 49.456, 6.181 46.987 C 6.784 45.569, 7.957 44.531, 9.033 43.468" fill="#000000" stroke="none" />
<path d="M 56.838 44.831 C 62.788 38.875, 68.811 32.984, 74.765 27.028 C 76.407 28.551, 77.992 30.142, 79.546 31.749 C 74.126 37.180, 68.645 42.559, 63.205 47.973 C 62.671 48.526, 62.064 49.015, 61.627 49.649 C 62.125 49.997, 62.436 50.651, 63.039 50.819 C 69.029 44.939, 74.979 39.016, 80.933 33.100 C 82.523 34.679, 84.169 36.210, 85.694 37.849 C 79.724 43.741, 73.778 49.657, 67.808 55.548 C 66.412 56.947, 64.434 57.753, 62.456 57.753 C 60.042 57.789, 57.627 56.619, 56.203 54.683 C 53.974 51.813, 54.250 47.400, 56.838 44.831" fill="#000000" stroke="none" />
<path d="M 35.627 42.707 C 38.580 41.717, 42.087 42.695, 44.016 45.144 C 44.590 45.773, 44.930 46.558, 45.294 47.320 C 46.039 49.344, 45.865 51.613, 44.857 53.516 C 44.534 54.041, 44.234 54.590, 43.786 55.023 C 38.151 60.598, 32.521 66.186, 26.886 71.765 C 26.466 72.173, 26.077 72.618, 25.608 72.971 C 23.990 71.484, 22.478 69.881, 20.892 68.362 C 26.324 63.007, 31.732 57.629, 37.152 52.266 C 37.714 51.673, 38.361 51.160, 38.847 50.502 C 38.450 50.005, 37.965 49.589, 37.528 49.128 C 31.534 55.079, 25.543 61.031, 19.529 66.959 C 17.915 65.392, 16.305 63.817, 14.720 62.222 C 19.998 57.007, 25.264 51.785, 30.535 46.562 C 31.801 45.340, 32.970 43.965, 34.555 43.136 C 34.911 42.979, 35.267 42.839, 35.627 42.707" fill="#000000" stroke="none" />
<path d="M 81.669 44.659 C 83.582 42.631, 86.705 41.769, 89.383 42.619 C 91.725 43.252, 93.601 45.108, 94.487 47.316 C 95.248 49.336, 95.053 51.604, 94.054 53.512 C 93.731 54.037, 93.415 54.574, 92.983 55.015 C 87.065 60.879, 81.143 66.739, 75.230 72.610 C 75.080 72.799, 74.753 73.059, 74.562 72.755 C 73.086 71.308, 71.598 69.869, 70.150 68.398 C 70.178 68.334, 70.239 68.210, 70.271 68.145 C 76.136 62.298, 82.057 56.502, 87.902 50.635 C 87.922 49.957, 87.085 49.637, 86.725 49.128 C 80.727 55.071, 74.736 61.023, 68.718 66.947 C 67.161 65.344, 65.490 63.849, 63.925 62.258 C 69.822 56.386, 75.756 50.530, 81.669 44.659" fill="#000000" stroke="none" />
<path d="M 44.991 56.410 C 47.830 53.725, 52.801 53.841, 55.516 56.647 C 61.393 62.490, 67.330 68.270, 73.195 74.125 C 73.616 74.358, 73.159 74.618, 72.985 74.835 C 71.525 76.234, 70.141 77.712, 68.649 79.075 C 62.598 73.208, 56.688 67.192, 50.678 61.276 C 50.225 61.721, 49.776 62.170, 49.315 62.606 C 52.130 65.456, 55.002 68.254, 57.841 71.075 C 60.398 73.769, 63.104 76.318, 65.717 78.959 C 66.202 79.480, 66.801 79.917, 67.193 80.514 C 65.712 82.121, 64.086 83.604, 62.557 85.171 C 59.941 82.570, 57.315 79.977, 54.698 77.380 C 51.337 74.205, 48.109 70.895, 44.809 67.661 C 43.349 66.266, 42.455 64.302, 42.418 62.286 C 42.342 60.073, 43.304 57.857, 44.991 56.410" fill="#000000" stroke="none" />
<path d="M 33.136 68.282 C 34.733 66.731, 36.291 65.143, 37.884 63.588 C 43.972 69.608, 50.067 75.620, 56.090 81.700 C 56.794 82.406, 57.259 83.304, 57.603 84.229 C 57.688 84.490, 57.744 84.758, 57.809 85.027 C 58.132 86.570, 58.035 88.241, 57.392 89.704 C 57.251 89.985, 57.105 90.269, 56.959 90.550 C 56.320 91.704, 55.346 92.638, 54.201 93.287 C 53.914 93.428, 53.631 93.572, 53.344 93.716 C 51.960 94.390, 50.411 94.317, 48.914 94.257 C 48.562 94.101, 48.178 94.045, 47.818 93.921 C 46.876 93.604, 45.982 93.119, 45.266 92.430 C 39.130 86.454, 33.059 80.410, 26.984 74.370 C 28.622 72.839, 30.130 71.175, 31.805 69.684 C 37.775 75.640, 43.802 81.540, 49.744 87.528 C 50.205 87.055, 50.674 86.590, 51.147 86.125 C 45.116 80.209, 39.069 74.298, 33.136 68.282" fill="#000000" stroke="none" />
</svg>