<svg xmlns="http://www.w3.org/2000/svg" width="123.7" height="71.7" viewBox="0 0 123.7 71.7">
<path d="M 118.747 26.416 C 81.785 26.599, 42.483 26.817, 5.000 26.349 C 5.305 25.739, 6.044 25.696, 6.580 25.495 C 12.994 23.111, 19.563 20.714, 26.131 18.342 C 33.149 15.809, 40.306 13.083, 47.393 10.533 C 52.141 8.824, 56.790 6.922, 61.545 5.282 C 62.366 5.000, 64.363 6.048, 65.495 6.464 C 82.127 12.559, 98.832 18.776, 115.389 24.904 C 115.981 25.122, 116.623 25.257, 117.232 25.494 C 117.731 25.692, 118.453 25.874, 118.747 26.416" fill="#000000" stroke="none" />
<path d="M 18.495 28.712 C 18.701 37.739, 18.809 47.962, 18.562 57.322 C 17.225 57.534, 15.025 57.543, 13.690 57.322 C 13.336 56.228, 13.492 55.013, 13.492 53.845 C 13.492 46.721, 13.492 39.285, 13.492 32.059 C 13.492 30.917, 13.337 29.720, 13.690 28.646 C 15.131 28.577, 17.162 28.459, 18.495 28.712" fill="#000000" stroke="none" />
<path d="M 64.968 28.779 C 65.248 31.528, 65.100 34.315, 65.099 37.177 C 65.099 39.898, 65.165 42.682, 65.165 45.446 C 65.165 49.449, 65.245 53.413, 64.969 57.391 C 63.554 57.570, 61.431 57.738, 60.098 57.391 C 59.756 49.313, 60.101 40.445, 59.965 32.061 C 59.946 30.957, 59.816 29.803, 60.162 28.780 C 61.506 28.590, 63.631 28.543, 64.968 28.779" fill="#000000" stroke="none" />
<path d="M 111.374 28.779 C 111.548 38.250, 111.760 47.550, 111.374 57.391 C 110.061 57.609, 107.882 57.603, 106.569 57.391 C 106.220 56.303, 106.373 55.098, 106.373 53.912 C 106.373 46.799, 106.371 39.626, 106.373 32.257 C 106.373 31.229, 106.240 29.165, 106.569 28.779 C 107.877 28.555, 110.063 28.569, 111.374 28.779" fill="#000000" stroke="none" />
<path d="M 55.620 40.918 C 55.833 42.227, 55.839 44.401, 55.620 45.709 C 45.223 45.933, 33.716 46.024, 23.036 45.643 C 22.855 44.307, 22.743 41.949, 23.102 40.720 C 33.430 40.871, 45.182 40.630, 55.620 40.918" fill="#000000" stroke="none" />
<path d="M 102.028 40.853 C 102.244 42.136, 102.244 44.292, 102.028 45.578 C 100.348 45.931, 98.581 45.774, 96.827 45.774 C 87.719 45.774, 78.381 45.929, 69.510 45.709 C 69.154 44.505, 69.263 42.227, 69.444 40.918 C 78.586 40.590, 88.723 40.721, 98.208 40.721 C 99.516 40.721, 100.840 40.541, 102.028 40.853" fill="#000000" stroke="none" />
<path d="M 111.440 61.458 C 111.544 62.867, 111.755 64.904, 111.374 66.183 C 107.307 66.489, 103.203 66.314, 99.130 66.314 C 71.063 66.318, 41.960 66.661, 13.690 66.183 C 13.422 65.686, 13.458 64.622, 13.492 63.690 C 13.525 62.783, 13.383 61.714, 13.756 61.392 C 13.803 61.331, 13.874 61.293, 13.952 61.260 C 34.611 61.413, 54.332 61.329, 75.104 61.327 C 87.057 61.325, 99.429 61.060, 111.440 61.458" fill="#000000" stroke="none" />
</svg>