<svg xmlns="http://www.w3.org/2000/svg" width="69.8" height="99.4" viewBox="0 0 69.8 99.4">
<path d="M 25.161 5.000 C 25.567 5.561, 25.385 6.379, 25.385 7.063 C 25.385 12.173, 25.349 17.214, 25.497 22.293 C 26.286 22.583, 27.180 22.460, 28.010 22.460 C 33.736 22.461, 40.120 22.527, 46.105 22.684 C 45.933 23.693, 45.282 24.611, 44.820 25.529 C 44.359 26.444, 43.852 27.385, 43.200 28.094 C 37.584 28.291, 31.513 27.871, 26.000 28.151 C 25.697 30.129, 25.833 32.149, 25.833 34.176 C 25.833 48.441, 25.739 62.054, 25.888 76.183 C 26.359 76.189, 26.594 75.602, 26.781 75.291 C 28.360 72.654, 29.943 69.830, 31.472 67.090 C 33.239 63.922, 35.177 60.850, 36.721 57.606 C 37.425 56.126, 38.351 54.729, 39.122 53.256 C 39.885 51.794, 40.781 50.400, 41.579 48.960 C 45.572 41.751, 49.690 34.566, 53.753 27.371 C 54.170 26.634, 54.567 25.904, 54.926 25.139 C 55.268 24.410, 55.484 23.553, 56.099 22.964 C 59.038 22.923, 61.869 22.841, 64.755 23.075 C 64.586 23.950, 64.013 24.676, 63.582 25.418 C 54.699 40.748, 46.166 56.580, 37.167 71.889 C 36.733 72.627, 36.420 73.418, 35.994 74.176 C 32.281 80.781, 28.381 87.428, 24.825 94.204 C 22.288 94.263, 19.229 94.367, 16.783 94.148 C 16.510 92.888, 16.616 91.571, 16.616 90.243 C 16.616 85.422, 16.671 80.509, 16.671 75.626 C 16.671 74.975, 16.806 74.316, 16.783 73.675 C 16.643 69.714, 16.671 65.511, 16.671 61.402 C 16.671 50.330, 16.767 39.190, 16.559 28.208 C 15.724 27.908, 14.728 28.041, 13.767 28.041 C 10.944 28.041, 7.693 28.132, 5.000 27.930 C 5.122 27.160, 5.836 26.979, 6.116 26.367 C 6.606 25.963, 6.954 25.418, 7.400 24.973 C 13.271 18.264, 19.125 11.540, 25.161 5.000" fill="#000000" stroke="none" />
</svg>